<?xml version="1.0" encoding="utf-8"?>
<!-- Generator: Adobe Illustrator 22.1.0, SVG Export Plug-In . SVG Version: 6.00 Build 0)  -->
<svg version="1.1" id="Primer_plano" xmlns="http://www.w3.org/2000/svg" xmlns:xlink="http://www.w3.org/1999/xlink" x="0px"
	 y="0px" viewBox="0 0 842 303" style="enable-background:new 0 0 842 303;" xml:space="preserve">
<style type="text/css">
	.st0{fill:#000E78;}
	.st1{fill-rule:evenodd;clip-rule:evenodd;fill:#000E78;}
</style>
<g>
	<path class="st0" d="M462.3,165.9c-4.1,4.3-10.1,7.2-16.5,7.2c-12.3,0-22.2-9.9-22.2-22.2s9.9-22.2,22.2-22.2
		c6.5,0,12.4,2.8,16.4,7.2l0.1-17.5c-4.9-2.5-10.5-3.9-16.4-3.9c-20.1,0-36.4,16.3-36.4,36.4c0,20.1,16.3,36.4,36.4,36.4
		c5.9,0,11.5-1.4,16.4-3.9L462.3,165.9z"/>
	<path class="st1" d="M511.3,183.6c-4,2.5-8.8,3.9-13.9,3.9c-14.4,0-26.1-11.7-26.1-26.1c0-14.4,11.7-26.1,26.1-26.1
		c5.1,0,9.9,1.5,13.9,4v-4h12.3v52.3h-12.3V183.6z M483.5,161.3c0-7.7,6.2-14,14-14c7.7,0,14,6.2,14,14c0,7.7-6.2,14-14,14
		C489.7,175.3,483.5,169,483.5,161.3z"/>
	<path class="st0" d="M559.9,149.4c-1.2-0.7-2.7-1.1-4.2-1.1c-4.7,0-8.6,3.8-8.6,8.6v30.6h-13.2l0.1-52.4h13.1l0.1,3.2
		c3.1-2,6.8-3.2,10.7-3.2h0.1c0.6,0,1.3,0,2,0.1V149.4z"/>
	<path class="st1" d="M588.1,161.3c0-14.5,11.7-26.2,26.2-26.2c14.5,0,26.2,11.7,26.2,26.2s-11.7,26.2-26.2,26.2
		C599.9,187.5,588.1,175.7,588.1,161.3z M600.4,161.3c0-7.7,6.2-14,14-14c7.7,0,14,6.2,14,14c0,7.7-6.2,14-14,14
		C606.6,175.2,600.4,169,600.4,161.3z"/>
	<path class="st0" d="M673.6,148.6l7-7.1c-3.9-3.9-9.3-6.3-15.3-6.3c-2.1,0-4.2,0.3-6.1,0.9c-7.1,2.2-12.4,8.7-12.4,16.5
		c0,0.5,0,1,0.1,1.6c0.6,4.4,3.9,7.9,7.9,9.3l12.1,4.6c1.9,0.8,2.6,2.1,2.6,3.9c0,3.7-4.3,4.8-7.3,4.8c-4.6,0-8.7-2.1-11.3-5.6
		l-6.9,6.8c4.4,5.7,11.2,9.4,19,9.4c4.7,0,9-1.3,12.6-3.6c4.3-2.8,7.1-7.6,7.1-13c0-6.4-3.8-11.9-9.4-14.2l-9.1-3.4
		c-1.8-0.6-3.1-1.9-3.1-3.9c0-2.3,1.9-4.3,4.2-4.3C668.6,145,671.5,146.4,673.6,148.6z"/>
	<rect x="567.9" y="114.6" class="st1" width="13.1" height="72.9"/>
	<rect x="353.3" y="48.5" class="st1" width="6.7" height="211.4"/>
	<g>
		<path class="st0" d="M153.2,152.3c-3-2.9-7-4.6-11.4-4.6c-7.3,0-13.2,5.9-13.2,13.2c0,7.3,5.9,13.2,13.2,13.2
			c4.5,0,8.5-1.8,11.4-4.7v15.2c-3.5,1.7-7.4,2.6-11.4,2.6c-14.6,0-26.4-11.8-26.4-26.4s11.8-26.4,26.4-26.4c4.1,0,8,0.9,11.4,2.6
			V152.3z"/>
		<path class="st1" d="M95.5,134.4v29.8c0,5.5-4.4,9.9-9.9,9.9c-5.5,0-9.9-4.4-9.9-9.9v-29.8H62.6v29.8c0,12.8,10.3,23.1,23.1,23.1
			c12.8,0,23.1-10.3,23.1-23.1v-29.8H95.5z"/>
		<path class="st1" d="M186.3,127.8l-7.6,19.8l9.2,0l-0.2,0c7.3,0,13.2,5.9,13.2,13.2c0,7.3-5.9,13.2-13.2,13.2
			c-7.3,0-13.2-5.9-13.2-13.2l-13.1,0c0,14.6,11.8,26.3,26.4,26.3s26.4-11.8,26.4-26.4c0-11.3-7-20.9-17-24.6l8.4-21.8l-40.8,0.1
			v13.2L186.3,127.8z"/>
		<path class="st1" d="M265.3,142.1c-3.9-4.7-9.8-7.7-16.4-7.7c-4.3,0-8.3,1.3-11.7,3.5l0-3.5h-13.2v52.8h13.2l0.1-29.8
			c0-5.5,4.4-9.9,9.9-9.9c5.5,0,9.9,4.5,9.9,9.9v29.7h13.2l0-29.8c0-5.5,4.4-9.9,9.9-9.9c5.5,0,9.9,4.4,9.9,9.9l0,29.8h13.2l0-31.5
			c0-11.8-9.6-21.4-21.5-21.4C275.2,134.4,269.3,137.4,265.3,142.1z"/>
	</g>
	<g>
		<rect x="706.4" y="114.4" class="st1" width="15.9" height="72.9"/>
		<rect x="763.4" y="114.4" class="st1" width="15.9" height="72.9"/>
		<rect x="734.9" y="114.4" class="st1" width="15.9" height="72.9"/>
	</g>
	<g>
		<path class="st1" d="M409.2,80.9l0-32.4h5.4l0,32.4c0,8.3,6.8,15.1,15.1,15.1c8.3,0,15.3-6.8,15.3-15.1L445,48.5h5.4l0,32.4
			c0,11.3-9.2,20.5-20.6,20.5C418.4,101.5,409.2,92.3,409.2,80.9z"/>
	</g>
	<g>
		<path class="st1" d="M463.2,78.6c0-5.5,4.4-10,9.9-10c5.5,0,10,4.5,10,10l0,22.9h5.4l0-23.3c0-8.3-6.8-15-15.1-15
			c-4,0-7.7,1.7-10.4,4.3v-4.3h-5.4v38.3h5.4L463.2,78.6z"/>
	</g>
	<path class="st1" d="M494.5,63.1h5.4v38.4h-5.4V63.1z M493.6,52.2c0-2,1.6-3.6,3.6-3.6c2,0,3.6,1.6,3.6,3.6c0,2-1.6,3.6-3.6,3.6
		C495.2,55.8,493.6,54.2,493.6,52.2z"/>
	<g>
		<polygon class="st1" points="523.9,101.5 504.9,62.6 511,62.6 523.8,89.1 536.4,62.6 542.5,62.6 		"/>
	</g>
	<path class="st1" d="M572.8,92.2c-2.5,2.4-5.9,3.9-9.6,3.9c-6.7,0-12.3-4.8-13.5-11.1l32.6,0c0.1-0.9,0.2-1.8,0.2-2.7
		c0-10.6-8.6-19.3-19.3-19.3c-10.6,0-19.3,8.6-19.3,19.3s8.6,19.3,19.3,19.3c5.3,0,10.1-2.1,13.6-5.5L572.8,92.2z M549.6,79.5
		c1.3-6.3,6.8-11.1,13.5-11.1c6.7,0,12.2,4.7,13.5,11L549.6,79.5z"/>
	<g>
		<path class="st1" d="M607.4,63.5c-1-0.2-2.1-0.4-3.2-0.4c-4,0-7.7,1.7-10.4,4.3v-4.3h-5.4v38.3h5.4l0-22.9c0-5.5,4.4-10,9.9-10
			c1.3,0,2.6,0.2,3.7,0.7V63.5z"/>
	</g>
	<path class="st1" d="M729.2,95.6c-3.5,3.6-8.5,5.9-13.9,5.9c-10.6,0-19.3-8.6-19.3-19.3S704.7,63,715.3,63c5.5,0,10.4,2.3,13.9,5.9
		V63h5.5v38.2h-5.5V95.6z M701.5,82.2c0-7.6,6.2-13.8,13.8-13.8c7.6,0,13.8,6.2,13.8,13.8c0,7.6-6.2,13.8-13.8,13.8
		C707.7,96,701.5,89.9,701.5,82.2z"/>
	<path class="st1" d="M641.1,63.1h5.4v38.4h-5.4V63.1z M640.2,52.2c0-2,1.6-3.6,3.6-3.6c2,0,3.6,1.6,3.6,3.6c0,2-1.6,3.6-3.6,3.6
		C641.8,55.8,640.2,54.2,640.2,52.2z"/>
	<path class="st1" d="M773.2,95.6c-3.5,3.6-8.5,5.9-13.9,5.9c-10.6,0-19.3-8.6-19.3-19.3S748.6,63,759.3,63c5.5,0,10.4,2.3,13.9,5.9
		V48.3h5.5v52.8h-5.5V95.6z M745.5,82.2c0-7.6,6.2-13.8,13.8-13.8c7.6,0,13.8,6.2,13.8,13.8c0,7.6-6.2,13.8-13.8,13.8
		C751.7,96,745.5,89.9,745.5,82.2z"/>
	<path class="st1" d="M685.3,95.6c-3.5,3.6-8.5,5.9-13.9,5.9c-10.6,0-19.3-8.6-19.3-19.3S660.7,63,671.4,63c5.5,0,10.4,2.3,13.9,5.9
		V48.3h5.5v52.8h-5.5V95.6z M657.5,82.2c0-7.6,6.2-13.8,13.8-13.8c7.6,0,13.8,6.2,13.8,13.8c0,7.6-6.2,13.8-13.8,13.8
		C663.7,96,657.5,89.9,657.5,82.2z"/>
	<g>
		<path class="st1" d="M618,72.7c-0.2-2.6,2-4.5,4.5-4.5c3.1,0.1,5.3,1.8,6.4,4.1l4.4-2.5c-2.3-4.5-6-6.9-10.4-6.9
			c-5.8,0-10.5,4.1-10.7,9.9c0,5,3,7,7,9.2l7.8,4.2c1.9,1.3,2.7,2.3,2.7,4.6c-0.1,2.7-2.7,5.3-6.1,5.3c-3.9,0-6.4-2.2-8.1-5.4
			l-5,2.5c2,5.5,7.2,8.4,12.5,8.4c6.6,0,12.3-4.9,12.5-11.6c0-5.7-4.1-8.3-8.3-10.4C622.8,77.1,618,75.2,618,72.7z"/>
	</g>
	<path class="st1" d="M442.4,254.2c-3.5,3.6-8.5,5.9-13.9,5.9c-10.6,0-19.3-8.6-19.3-19.3c0-10.6,8.6-19.3,19.3-19.3
		c5.5,0,10.4,2.3,13.9,5.9v-20.5h5.5v52.8h-5.5V254.2z M414.7,240.8c0-7.6,6.2-13.8,13.8-13.8c7.6,0,13.8,6.2,13.8,13.8
		c0,7.6-6.2,13.8-13.8,13.8C420.9,254.6,414.7,248.4,414.7,240.8z"/>
	<path class="st1" d="M485.5,250.7c-2.5,2.4-5.9,3.9-9.6,3.9c-6.7,0-12.3-4.8-13.5-11.1l32.6,0c0.1-0.9,0.2-1.8,0.2-2.7
		c0-10.6-8.6-19.3-19.3-19.3c-10.6,0-19.3,8.6-19.3,19.3c0,10.6,8.6,19.3,19.3,19.3c5.3,0,10.1-2.1,13.6-5.5L485.5,250.7z
		 M462.4,238.1c1.3-6.3,6.8-11.1,13.5-11.1c6.7,0,12.2,4.7,13.5,11L462.4,238.1z"/>
	<path class="st1" d="M631.8,254.2c-3.5,3.6-8.5,5.9-13.9,5.9c-10.6,0-19.3-8.6-19.3-19.3c0-10.6,8.6-19.3,19.3-19.3
		c5.5,0,10.4,2.3,13.9,5.9v-5.9h5.5v38.2h-5.5V254.2z M604,240.8c0-7.6,6.2-13.8,13.8-13.8c7.6,0,13.8,6.2,13.8,13.8
		c0,7.6-6.2,13.8-13.8,13.8C610.2,254.6,604,248.4,604,240.8z"/>
	<path class="st1" d="M679.1,254.2c-3.5,3.6-8.5,5.9-13.9,5.9c-10.6,0-19.3-8.6-19.3-19.3c0-10.6,8.6-19.3,19.3-19.3
		c5.5,0,10.4,2.3,13.9,5.9v-20.5h5.5v52.8h-5.5V254.2z M651.4,240.8c0-7.6,6.2-13.8,13.8-13.8c7.6,0,13.8,6.2,13.8,13.8
		c0,7.6-6.2,13.8-13.8,13.8C657.6,254.6,651.4,248.4,651.4,240.8z"/>
	<g>
		<path class="st1" d="M715.3,222.1c-1-0.2-2.1-0.4-3.2-0.4c-4,0-7.7,1.7-10.4,4.3v-4.3h-5.4V260h5.4l0-22.9c0-5.5,4.4-10,9.9-10
			c1.3,0,2.6,0.2,3.7,0.7V222.1z"/>
	</g>
	<path class="st1" d="M724.9,221.6h5.4V260h-5.4V221.6z M724,210.7c0-2,1.6-3.6,3.6-3.6s3.6,1.6,3.6,3.6c0,2-1.6,3.6-3.6,3.6
		S724,212.7,724,210.7z"/>
	<path class="st1" d="M773.2,254.2c-3.5,3.6-8.5,5.9-13.9,5.9c-10.6,0-19.3-8.6-19.3-19.3c0-10.6,8.6-19.3,19.3-19.3
		c5.5,0,10.4,2.3,13.9,5.9v-20.5h5.5v52.8h-5.5V254.2z M745.4,240.8c0-7.6,6.2-13.8,13.8-13.8c7.6,0,13.8,6.2,13.8,13.8
		c0,7.6-6.2,13.8-13.8,13.8C751.6,254.6,745.4,248.4,745.4,240.8z"/>
	<g>
		<polygon class="st1" points="555.4,248 576,206 589.8,259.4 584.1,259.4 574.4,221.6 555.4,260.4 536.5,221.6 526.8,259.4 
			521.1,259.4 534.9,206 555.4,248 		"/>
	</g>
</g>
</svg>
